<svg xmlns="http://www.w3.org/2000/svg" width="177.317" height="47.47" viewBox="0 0 177.317 47.47">
  <g id="logo" transform="translate(-14633.001 -5857.481)">
    <g id="Fire" transform="translate(14633.001 5857.481)">
      <g id="Yellow" transform="translate(0.257 19.395)">
        <path id="Path_1524" data-name="Path 1524" d="M2.937,1.559V13.192a1.629,1.629,0,0,0-.117-.6A1.556,1.556,0,0,0,2.5,12.1a1.459,1.459,0,0,0-.467-.33,1.393,1.393,0,0,0-.571-.119h0a1.406,1.406,0,0,0-.571.128,1.49,1.49,0,0,0-.466.337,1.587,1.587,0,0,0-.315.5A1.643,1.643,0,0,0,0,13.214V1.594A1.646,1.646,0,0,1,.115.988,1.6,1.6,0,0,1,.43.49,1.5,1.5,0,0,1,.9.15,1.41,1.41,0,0,1,1.467.019h0a1.389,1.389,0,0,1,.571.117,1.45,1.45,0,0,1,.467.328,1.546,1.546,0,0,1,.315.491A1.625,1.625,0,0,1,2.937,1.559Z" transform="translate(5.863)" fill="#ffb52b"/>
        <path id="Path_1525" data-name="Path 1525" d="M3.027,1.574v11.74A1.641,1.641,0,0,0,2.9,12.7a1.579,1.579,0,0,0-.326-.5,1.5,1.5,0,0,0-.48-.333,1.439,1.439,0,0,0-.586-.118h0a1.449,1.449,0,0,0-.585.126,1.522,1.522,0,0,0-.479.339,1.6,1.6,0,0,0-.325.5A1.652,1.652,0,0,0,0,13.332V1.606A1.655,1.655,0,0,1,.121.991a1.615,1.615,0,0,1,.325-.5A1.532,1.532,0,0,1,.926.146,1.453,1.453,0,0,1,1.512.018h0A1.435,1.435,0,0,1,2.1.133a1.488,1.488,0,0,1,.48.331,1.57,1.57,0,0,1,.326.5A1.637,1.637,0,0,1,3.027,1.574Z" transform="translate(29.554 2.963)" fill="#ffb52b"/>
        <path id="Path_1526" data-name="Path 1526" d="M2.924,1.553V11.561q0,.023,0,.045t0,.045q0,.023,0,.045c0,.015,0,.03,0,.045a1.617,1.617,0,0,0-.16-.543,1.539,1.539,0,0,0-.321-.433,1.447,1.447,0,0,0-.444-.287,1.386,1.386,0,0,0-.527-.1h0a1.394,1.394,0,0,0-.527.109,1.467,1.467,0,0,0-.443.291,1.561,1.561,0,0,0-.321.436,1.63,1.63,0,0,0-.159.544c0-.015,0-.03,0-.045s0-.03,0-.045,0-.03,0-.045,0-.03,0-.045v-10a1.643,1.643,0,0,1,.116-.6A1.587,1.587,0,0,1,.429.48,1.486,1.486,0,0,1,.893.143,1.4,1.4,0,0,1,1.461.014h0A1.382,1.382,0,0,1,2.03.132,1.45,1.45,0,0,1,2.494.46a1.55,1.55,0,0,1,.314.49A1.628,1.628,0,0,1,2.924,1.553Z" transform="translate(0 7.921)" fill="#ffb52b"/>
        <path id="Path_1527" data-name="Path 1527" d="M0,10.209V.2Q0,.178,0,.156T0,.11Q0,.088,0,.065c0-.015,0-.03,0-.045a1.616,1.616,0,0,0,.16.543A1.538,1.538,0,0,0,.491,1a1.448,1.448,0,0,0,.445.286,1.388,1.388,0,0,0,.528.1h0a1.4,1.4,0,0,0,.528-.11A1.475,1.475,0,0,0,2.436.983,1.567,1.567,0,0,0,2.757.545,1.633,1.633,0,0,0,2.917,0c0,.015,0,.03,0,.045s0,.03,0,.045,0,.03,0,.045,0,.03,0,.045V10.2a1.638,1.638,0,0,1-.117.6A1.576,1.576,0,0,1,2.5,11.3a1.478,1.478,0,0,1-.466.334,1.4,1.4,0,0,1-.57.125h0a1.392,1.392,0,0,1-.569-.123A1.466,1.466,0,0,1,.429,11.3a1.564,1.564,0,0,1-.313-.492A1.633,1.633,0,0,1,0,10.209Z" transform="translate(2.938 14.908)" fill="#ffb52b"/>
        <path id="Path_1528" data-name="Path 1528" d="M0,10.242V.212Q0,.19,0,.167T0,.121Q0,.1.006.076t0-.045A1.614,1.614,0,0,0,.171.575a1.536,1.536,0,0,0,.323.433,1.451,1.451,0,0,0,.447.286,1.4,1.4,0,0,0,.531.1h0A1.411,1.411,0,0,0,2,1.285,1.485,1.485,0,0,0,2.452.99,1.575,1.575,0,0,0,2.775.55,1.637,1.637,0,0,0,2.935,0c0,.015,0,.03,0,.045s0,.03,0,.045,0,.03,0,.045,0,.03,0,.046V10.223a1.64,1.64,0,0,1-.117.606,1.583,1.583,0,0,1-.316.5,1.489,1.489,0,0,1-.468.336,1.408,1.408,0,0,1-.572.126h0a1.4,1.4,0,0,1-.572-.12,1.468,1.468,0,0,1-.467-.331,1.562,1.562,0,0,1-.316-.492A1.631,1.631,0,0,1,0,10.242Z" transform="translate(8.819 9.453)" fill="#ffb52b"/>
        <path id="Path_1529" data-name="Path 1529" d="M0,10.259V.206Q0,.184,0,.161C0,.146,0,.13,0,.115s0-.03,0-.045,0-.03,0-.045A1.614,1.614,0,0,0,.173.57,1.541,1.541,0,0,0,.5,1a1.458,1.458,0,0,0,.448.287,1.406,1.406,0,0,0,.533.1h0a1.419,1.419,0,0,0,.533-.111A1.491,1.491,0,0,0,2.461.989a1.578,1.578,0,0,0,.325-.44A1.637,1.637,0,0,0,2.947,0q0,.023,0,.045t0,.045c0,.015,0,.03,0,.046s0,.03,0,.046V10.246a1.639,1.639,0,0,1-.117.608,1.584,1.584,0,0,1-.317.5,1.493,1.493,0,0,1-.47.337,1.416,1.416,0,0,1-.575.126h0A1.408,1.408,0,0,1,.9,11.692a1.476,1.476,0,0,1-.469-.333,1.566,1.566,0,0,1-.317-.494A1.632,1.632,0,0,1,0,10.259Z" transform="translate(14.675 11.026)" fill="#ffb52b"/>
        <path id="Path_1530" data-name="Path 1530" d="M0,10.284V.212Q0,.19,0,.167T0,.122Q0,.1.007.076t0-.045A1.616,1.616,0,0,0,.175.575,1.543,1.543,0,0,0,.5,1.008a1.466,1.466,0,0,0,.449.286,1.416,1.416,0,0,0,.534.1h0a1.428,1.428,0,0,0,.535-.111A1.5,1.5,0,0,0,2.47.99,1.582,1.582,0,0,0,2.8.55,1.639,1.639,0,0,0,2.959,0q0,.022,0,.045t0,.045q0,.023,0,.045t0,.046V10.27a1.64,1.64,0,0,1-.118.609,1.59,1.59,0,0,1-.319.5,1.5,1.5,0,0,1-.472.338,1.426,1.426,0,0,1-.578.127h0a1.417,1.417,0,0,1-.577-.123,1.482,1.482,0,0,1-.471-.334,1.57,1.57,0,0,1-.318-.495A1.632,1.632,0,0,1,0,10.284Z" transform="translate(20.663 10.024)" fill="#ffb52b"/>
        <path id="Path_1531" data-name="Path 1531" d="M0,10.3V.2Q0,.178,0,.155T0,.11q0-.023,0-.045t0-.045A1.619,1.619,0,0,0,.174.567,1.553,1.553,0,0,0,.5,1a1.475,1.475,0,0,0,.452.289,1.425,1.425,0,0,0,.538.1h0a1.436,1.436,0,0,0,.537-.111A1.5,1.5,0,0,0,2.482.992,1.581,1.581,0,0,0,2.809.551,1.637,1.637,0,0,0,2.972,0q0,.023,0,.045c0,.015,0,.03,0,.045s0,.03,0,.046,0,.03,0,.045V10.294a1.64,1.64,0,0,1-.119.61,1.587,1.587,0,0,1-.32.5,1.5,1.5,0,0,1-.474.337,1.433,1.433,0,0,1-.58.126h0a1.429,1.429,0,0,1-.579-.124,1.494,1.494,0,0,1-.473-.335,1.578,1.578,0,0,1-.319-.5A1.636,1.636,0,0,1,0,10.3Z" transform="translate(26.572 16.207)" fill="#ffb52b"/>
        <path id="Path_1533" data-name="Path 1533" d="M2.969,1.8V13.36q0,.027,0,.054t0,.054q0,.027,0,.054t-.006.054a2.057,2.057,0,0,0-.16-.623,1.8,1.8,0,0,0-.325-.5,1.463,1.463,0,0,0-.45-.334A1.239,1.239,0,0,0,1.482,12h0a1.251,1.251,0,0,0-.537.127,1.49,1.49,0,0,0-.45.34,1.826,1.826,0,0,0-.324.506,2.071,2.071,0,0,0-.16.624q0-.026,0-.052t0-.052q0-.026,0-.052t0-.052V1.828a2.118,2.118,0,0,1,.117-.7A1.892,1.892,0,0,1,.435.557,1.538,1.538,0,0,1,.906.166,1.263,1.263,0,0,1,1.482.017h0A1.252,1.252,0,0,1,2.06.152a1.489,1.489,0,0,1,.473.38,1.836,1.836,0,0,1,.319.567A2.093,2.093,0,0,1,2.969,1.8Z" transform="translate(17.656 1.729)" fill="#ffb52b"/>
        <path id="Path_1535" data-name="Path 1535" d="M2.978,1.567v10.1q0,.023,0,.046t0,.046q0,.023,0,.046t0,.046A1.619,1.619,0,0,0,2.8,11.3a1.547,1.547,0,0,0-.327-.436,1.47,1.47,0,0,0-.452-.288,1.42,1.42,0,0,0-.537-.1h0a1.432,1.432,0,0,0-.537.111,1.5,1.5,0,0,0-.451.3,1.581,1.581,0,0,0-.327.441,1.636,1.636,0,0,0-.162.55q0-.023,0-.045t0-.046q0-.023,0-.046t0-.046V1.6A1.646,1.646,0,0,1,.118.991,1.6,1.6,0,0,1,.437.49,1.519,1.519,0,0,1,.91.149,1.436,1.436,0,0,1,1.488.018h0a1.416,1.416,0,0,1,.579.117,1.47,1.47,0,0,1,.473.33,1.556,1.556,0,0,1,.32.494A1.626,1.626,0,0,1,2.978,1.567Z" transform="translate(23.602 1.173)" fill="#ffb52b"/>
        <path id="Rectangle_1141" data-name="Rectangle 1141" d="M1.493.015a1.419,1.419,0,0,1,.581.118,1.475,1.475,0,0,1,.475.332,1.559,1.559,0,0,1,.32.5,1.625,1.625,0,0,1,.117.61V18.636a1.636,1.636,0,0,1-.117.611,1.584,1.584,0,0,1-.32.5,1.5,1.5,0,0,1-.475.337,1.432,1.432,0,0,1-1.163,0,1.489,1.489,0,0,1-.474-.335,1.573,1.573,0,0,1-.32-.5A1.631,1.631,0,0,1,0,18.644V1.6A1.641,1.641,0,0,1,.117.987a1.6,1.6,0,0,1,.32-.5A1.514,1.514,0,0,1,.911.144,1.435,1.435,0,0,1,1.493.015Z" transform="translate(26.582 6.731)" fill="#ffb52b"/>
        <path id="Path_1532" data-name="Path 1532" d="M2.965,1.8V13.365q0,.026,0,.052t0,.052q0,.026,0,.052t0,.052a2.058,2.058,0,0,0-.16-.623,1.8,1.8,0,0,0-.325-.5,1.462,1.462,0,0,0-.45-.334A1.24,1.24,0,0,0,1.482,12h0a1.253,1.253,0,0,0-.537.126,1.488,1.488,0,0,0-.45.34,1.825,1.825,0,0,0-.324.506,2.072,2.072,0,0,0-.16.625q0-.026,0-.052t0-.052q0-.026,0-.052t0-.052V1.827a2.116,2.116,0,0,1,.117-.7A1.892,1.892,0,0,1,.436.556,1.539,1.539,0,0,1,.907.165,1.261,1.261,0,0,1,1.482.017h0a1.243,1.243,0,0,1,.576.135,1.49,1.49,0,0,1,.472.38,1.841,1.841,0,0,1,.319.567A2.094,2.094,0,0,1,2.965,1.8Z" transform="translate(17.66 2.394)" fill="#ffb52b"/>
        <path id="Path_1534" data-name="Path 1534" d="M2.949,1.56V11.614q0,.023,0,.046t0,.046q0,.023,0,.045t0,.045a1.618,1.618,0,0,0-.161-.545,1.544,1.544,0,0,0-.325-.435A1.459,1.459,0,0,0,2,10.528a1.4,1.4,0,0,0-.532-.1h0a1.414,1.414,0,0,0-.532.11,1.484,1.484,0,0,0-.447.293,1.572,1.572,0,0,0-.324.439,1.634,1.634,0,0,0-.161.547q0-.023,0-.045t0-.045q0-.023,0-.045t0-.045V1.591A1.645,1.645,0,0,1,.116.984a1.6,1.6,0,0,1,.316-.5A1.5,1.5,0,0,1,.9.146a1.417,1.417,0,0,1,.573-.13h0a1.4,1.4,0,0,1,.574.118,1.46,1.46,0,0,1,.469.329,1.552,1.552,0,0,1,.317.492A1.627,1.627,0,0,1,2.949,1.56Z" transform="translate(11.75 3.701)" fill="#ffb52b"/>
      </g>
      <g id="Orange" transform="translate(0.257 5.073)">
        <path id="Path_1542" data-name="Path 1542" d="M2.831.563Q2.8.493,2.769.425T2.695.294Q2.654.231,2.609.172t-.1-.113L2.5.048,2.488.037,2.476.026,2.464.014,2.44.04,2.414.066,2.389.091,2.363.116a1.422,1.422,0,0,1-.328.218,1.361,1.361,0,0,1-.363.115,1.325,1.325,0,0,1-.377.009,1.319,1.319,0,0,1-.37-.1L.872.332.821.306.771.277.722.245.658.2Q.626.177.6.152T.537.1Q.509.073.482.044a1.567,1.567,0,0,0-.2.246A1.614,1.614,0,0,0,.126.572,1.648,1.648,0,0,0,0,1.2V14.237a1.655,1.655,0,0,1,.081-.505A1.621,1.621,0,0,1,.3,13.29a1.545,1.545,0,0,1,.342-.347,1.459,1.459,0,0,1,.439-.22q.047-.014.095-.025t.1-.018q.048-.007.1-.011t.1,0q.049,0,.1,0t.1.009q.048.006.1.016t.094.023a1.414,1.414,0,0,1,.423.2,1.483,1.483,0,0,1,.336.319,1.563,1.563,0,0,1,.227.413,1.627,1.627,0,0,1,.1.48V1.151q0-.076-.006-.151T2.912.851Q2.9.777,2.878.705T2.831.563Z" transform="translate(5.861)" fill="#f57f25"/>
        <path id="Path_1536" data-name="Path 1536" d="M2.936,0V12.587A1.619,1.619,0,0,1,2.884,13a1.6,1.6,0,0,1-.065.2,1.575,1.575,0,0,1-.091.188,1.544,1.544,0,0,1-.311.395,1.464,1.464,0,0,1-.4.262,1.4,1.4,0,0,1-.46.113,1.381,1.381,0,0,1-.481-.051,1.419,1.419,0,0,1-.438-.214,1.5,1.5,0,0,1-.34-.344,1.58,1.58,0,0,1-.22-.441A1.634,1.634,0,0,1,0,12.6V.029a1.631,1.631,0,0,0,.076.5A1.572,1.572,0,0,0,.3.973a1.488,1.488,0,0,0,.34.342,1.411,1.411,0,0,0,.438.212,1.379,1.379,0,0,0,.48.049,1.407,1.407,0,0,0,.46-.114,1.474,1.474,0,0,0,.4-.263A1.555,1.555,0,0,0,2.728.8,1.588,1.588,0,0,0,2.819.615a1.612,1.612,0,0,0,.065-.2A1.624,1.624,0,0,0,2.923.21,1.632,1.632,0,0,0,2.936,0Z" transform="translate(2.925 20.948)" fill="#f57f25"/>
        <path id="Path_1537" data-name="Path 1537" d="M2.952,1.5V14.578a1.621,1.621,0,0,0-.131-.588,1.547,1.547,0,0,0-.32-.475,1.457,1.457,0,0,0-.463-.316,1.408,1.408,0,0,0-1.123.01,1.491,1.491,0,0,0-.463.324,1.582,1.582,0,0,0-.319.48A1.638,1.638,0,0,0,0,14.6V1.542A1.643,1.643,0,0,1,.132.952,1.593,1.593,0,0,1,.452.471,1.5,1.5,0,0,1,.914.145,1.415,1.415,0,0,1,1.476.02a1.394,1.394,0,0,1,.562.109A1.447,1.447,0,0,1,2.5.443a1.537,1.537,0,0,1,.32.473,1.616,1.616,0,0,1,.131.587Z" transform="translate(11.748 11.056)" fill="#f57f25"/>
        <path id="Path_1538" data-name="Path 1538" d="M2.981,1.553V14.705a1.627,1.627,0,0,0-.094-.551,1.569,1.569,0,0,0-.262-.467,1.49,1.49,0,0,0-.4-.343,1.423,1.423,0,0,0-1.035-.161,1.464,1.464,0,0,0-.48.206,1.539,1.539,0,0,0-.386.365,1.61,1.61,0,0,0-.25.5q-.018.058-.032.118t-.023.12q-.009.06-.013.122t0,.122V1.608q0-.061,0-.122t.013-.122q.009-.061.023-.12t.032-.118A1.62,1.62,0,0,1,.323.631,1.551,1.551,0,0,1,.708.267,1.473,1.473,0,0,1,1.186.059,1.421,1.421,0,0,1,2.217.21a1.478,1.478,0,0,1,.4.336,1.559,1.559,0,0,1,.265.46A1.624,1.624,0,0,1,2.981,1.553Z" transform="translate(23.598 7.868)" fill="#f57f25"/>
        <path id="Path_1539" data-name="Path 1539" d="M3.2,1.547V14.656a1.585,1.585,0,0,0-.033-.311,1.555,1.555,0,0,0-.092-.293,1.513,1.513,0,0,0-.147-.267,1.465,1.465,0,0,0-.2-.231,1.658,1.658,0,0,0-.249-.195,1.618,1.618,0,0,0-.277-.142,1.586,1.586,0,0,0-.607-.111,1.528,1.528,0,0,0-.488.074,1.582,1.582,0,0,0-.436.22,1.66,1.66,0,0,0-.355.346,1.73,1.73,0,0,0-.246.452q-.019.058-.034.117t-.024.12q-.01.06-.015.121t0,.122V1.6q0-.061,0-.122t.015-.122q.01-.06.024-.12t.034-.118A1.741,1.741,0,0,1,.323.67,1.673,1.673,0,0,1,.678.323,1.593,1.593,0,0,1,1.114.1,1.533,1.533,0,0,1,1.6.024a1.58,1.58,0,0,1,.607.109,1.606,1.606,0,0,1,.277.141,1.646,1.646,0,0,1,.249.194,1.453,1.453,0,0,1,.2.226,1.5,1.5,0,0,1,.146.261,1.547,1.547,0,0,1,.093.287A1.578,1.578,0,0,1,3.2,1.547Z" transform="translate(17.65 9.018)" fill="#f57f25"/>
        <path id="Path_1540" data-name="Path 1540" d="M2.993,1.286v10.85a1.243,1.243,0,0,0-.034-.263,1.22,1.22,0,0,0-.087-.245,1.185,1.185,0,0,0-.136-.219,1.147,1.147,0,0,0-.182-.184,1.654,1.654,0,0,0-.238-.163,1.624,1.624,0,0,0-.26-.117,1.6,1.6,0,0,0-.56-.089,1.705,1.705,0,0,0-.475.071,1.6,1.6,0,0,0-.413.19,1.448,1.448,0,0,0-.325.287,1.258,1.258,0,0,0-.212.361q-.018.048-.031.1t-.023.1q-.009.05-.014.1t0,.1V1.334q0-.051,0-.1t.014-.1q.009-.05.023-.1t.032-.1A1.263,1.263,0,0,1,.284.573,1.454,1.454,0,0,1,.608.286,1.613,1.613,0,0,1,1.021.094,1.712,1.712,0,0,1,1.5.021a1.587,1.587,0,0,1,.562.087,1.6,1.6,0,0,1,.261.117,1.635,1.635,0,0,1,.239.164,1.139,1.139,0,0,1,.179.181,1.179,1.179,0,0,1,.135.216,1.215,1.215,0,0,1,.087.242A1.239,1.239,0,0,1,2.993,1.286Z" transform="translate(29.566 12.328)" fill="#f57f25"/>
        <path id="Path_1541" data-name="Path 1541" d="M2.828.561Q2.8.49,2.766.422T2.692.291Q2.652.228,2.606.169a1.49,1.49,0,0,0-.1-.113L2.461.011,2.436.037,2.411.063,2.386.088,2.359.112a1.412,1.412,0,0,1-.328.217,1.354,1.354,0,0,1-.363.114,1.321,1.321,0,0,1-.377.007,1.319,1.319,0,0,1-.37-.1L.869.325.818.3.768.27.719.239.655.194Q.623.171.593.146T.534.093Q.505.066.478.037a1.563,1.563,0,0,0-.2.245,1.609,1.609,0,0,0-.15.28A1.645,1.645,0,0,0,0,1.19V14.227a1.641,1.641,0,0,1,.112-.6,1.589,1.589,0,0,1,.305-.492,1.5,1.5,0,0,1,.455-.34,1.407,1.407,0,0,1,.559-.139,1.386,1.386,0,0,1,.565.1,1.443,1.443,0,0,1,.471.306,1.536,1.536,0,0,1,.329.469,1.616,1.616,0,0,1,.141.588V1.15q0-.076-.007-.151T2.911.849Q2.9.775,2.876.7T2.828.561Z" transform="translate(5.865 7.803)" fill="#f57f25"/>
        <path id="Path_1543" data-name="Path 1543" d="M2.972,0V18.706a1.67,1.67,0,0,1-.078.5,1.644,1.644,0,0,1-.094.232,1.614,1.614,0,0,1-.128.215,1.543,1.543,0,0,1-.26.285,1.484,1.484,0,0,1-.314.205,1.437,1.437,0,0,1-.352.118,1.41,1.41,0,0,1-.74-.054,1.443,1.443,0,0,1-.331-.167,1.49,1.49,0,0,1-.281-.248,1.547,1.547,0,0,1-.217-.319A1.578,1.578,0,0,1,.1,19.292a1.6,1.6,0,0,1-.056-.184,1.619,1.619,0,0,1-.034-.19A1.635,1.635,0,0,1,0,18.725V1.283l.042.044.044.041.046.039.047.037a1.434,1.434,0,0,0,.2.129,1.407,1.407,0,0,0,.216.093,1.391,1.391,0,0,0,.463.072l.053,0,.053,0,.053-.006L1.27,1.72l.053.007.054,0,.054,0h.054a1.432,1.432,0,0,0,.467-.085,1.493,1.493,0,0,0,.411-.227,1.567,1.567,0,0,0,.328-.347A1.628,1.628,0,0,0,2.905.63V.483q0-.061,0-.122T2.92.239q.008-.06.021-.12T2.972,0Z" transform="translate(20.678 11.15)" fill="#f57f25"/>
        <path id="Path_1545" data-name="Path 1545" d="M2.989,0V11.634a.961.961,0,0,1-.048.291.948.948,0,0,1-.056.135.928.928,0,0,1-.077.125l-.02.026q-.038.049-.079.095t-.087.086q-.045.041-.094.078t-.1.068a1.823,1.823,0,0,1-.2.1,1.8,1.8,0,0,1-.207.077,1.766,1.766,0,0,1-.433.075H1.5a1.9,1.9,0,0,1-.408-.041,1.729,1.729,0,0,1-.365-.121,1.488,1.488,0,0,1-.307-.189A1.214,1.214,0,0,1,.183,12.2a.914.914,0,0,1-.077-.124.936.936,0,0,1-.056-.134A.953.953,0,0,1,0,11.65V2.643q.019.032.04.063t.044.06q.023.029.047.057t.051.053a1.7,1.7,0,0,0,.261.2,1.667,1.667,0,0,0,.29.141,1.64,1.64,0,0,0,.632.1h.159l.029,0L1.583,3.3H1.6l.1-.016.048-.009.047-.01.047-.012.047-.013.039-.012.038-.013L2,3.2l.038-.014.073-.031.039-.019.038-.019L2.23,3.1l.037-.02.015-.008L2.3,3.064l.014-.009.014-.01.026-.018.026-.019L2.4,2.99l.025-.02.025-.02.024-.021L2.5,2.908l.023-.021q.037-.034.07-.07t.064-.077q.03-.04.057-.083t.049-.088l.008-.015.008-.016.007-.016.007-.016q.01-.025.02-.05t.017-.051q.008-.026.014-.052T2.853,2.3a.13.13,0,0,1,0-.014s0-.009,0-.014l0-.014s0-.01,0-.015,0-.015,0-.023,0-.015,0-.023,0-.015,0-.023,0-.015,0-.023V.467A.95.95,0,0,1,2.894.224.94.94,0,0,1,2.989,0Z" transform="translate(26.577 16.754)" fill="#f57f25"/>
        <path id="Path_1546" data-name="Path 1546" d="M2.924,1.555V8.21a1.63,1.63,0,0,0-.116-.6,1.553,1.553,0,0,0-.314-.491,1.453,1.453,0,0,0-.464-.329,1.385,1.385,0,0,0-.569-.119h0A1.4,1.4,0,0,0,.893,6.8a1.487,1.487,0,0,0-.464.337,1.588,1.588,0,0,0-.313.5,1.645,1.645,0,0,0-.116.6V1.587A1.644,1.644,0,0,1,.115.982a1.59,1.59,0,0,1,.313-.5A1.49,1.49,0,0,1,.893.147a1.4,1.4,0,0,1,.569-.13h0a1.38,1.38,0,0,1,.569.117A1.445,1.445,0,0,1,2.5.462a1.545,1.545,0,0,1,.314.49,1.625,1.625,0,0,1,.116.6Z" transform="translate(0 17.546)" fill="#f57f25"/>
        <path id="Path_1547" data-name="Path 1547" d="M2.943,7.911V17.9a1.645,1.645,0,0,1-.066.466,1.611,1.611,0,0,1-.19.416,1.545,1.545,0,0,1-.3.34,1.466,1.466,0,0,1-.385.238,1.409,1.409,0,0,1-.434.106,1.392,1.392,0,0,1-.434-.034,1.416,1.416,0,0,1-.4-.166,1.473,1.473,0,0,1-.347-.292h0l-.048-.058q-.024-.03-.046-.061T.25,18.788q-.021-.032-.04-.065h0a1.555,1.555,0,0,1-.082-.164,1.581,1.581,0,0,1-.063-.173,1.6,1.6,0,0,1-.042-.18A1.619,1.619,0,0,1,0,18.022v-.005s0,0,0-.005,0,0,0-.005V.041H0L.013.07.026.1.04.127.054.155V7.531q0,.03,0,.059t0,.059q0,.03.005.059t.008.059q.007.051.017.1t.024.1q.014.049.03.1t.037.094a.033.033,0,0,0,0,.011l0,.011.006.01,0,.01.015.033.013.025.013.025.013.025.014.025A1.529,1.529,0,0,0,.5,8.642a1.467,1.467,0,0,0,.3.233,1.419,1.419,0,0,0,.346.146,1.381,1.381,0,0,0,.745,0,1.436,1.436,0,0,0,.34-.147,1.5,1.5,0,0,0,.3-.231,1.558,1.558,0,0,0,.236-.306q.03-.049.056-.1t.049-.1q.023-.053.042-.107t.034-.11h0Z" transform="translate(8.805 10.723)" fill="#f57f25"/>
        <path id="Path_1548" data-name="Path 1548" d="M2.963,2.067V19.928q0,.033,0,.066t-.01.065q-.007.032-.016.064t-.022.062a.888.888,0,0,1-.2.289,1.333,1.333,0,0,1-.323.231,1.823,1.823,0,0,1-.419.153,2.171,2.171,0,0,1-.486.057,2.139,2.139,0,0,1-.576-.074,1.669,1.669,0,0,1-.471-.207,1.072,1.072,0,0,1-.318-.309A.693.693,0,0,1,0,19.948V.042l.184,0A.964.964,0,0,0,.253.183a.94.94,0,0,0,.09.128.913.913,0,0,0,.109.11.888.888,0,0,0,.126.09A1.922,1.922,0,0,0,.824.638a1.892,1.892,0,0,0,.26.089,1.886,1.886,0,0,0,.27.051,1.884,1.884,0,0,0,.276.011A2.185,2.185,0,0,0,2.05.743,1.929,1.929,0,0,0,2.423.625,1.519,1.519,0,0,0,2.732.447,1.077,1.077,0,0,0,2.957.22V2.042l0,.007,0,.007s0,0,0,.007S2.963,2.066,2.963,2.067Z" transform="translate(14.696 10.022)" fill="#f57f25"/>
      </g>
      <g id="Red">
        <path id="Path_1552" data-name="Path 1552" d="M2.926,1.5v11.49a1.639,1.639,0,0,0-.039-.416,1.6,1.6,0,0,0-.139-.383,1.53,1.53,0,0,0-.229-.33A1.458,1.458,0,0,0,2.21,11.6a1.4,1.4,0,0,0-.363-.159,1.383,1.383,0,0,0-.768.009,1.434,1.434,0,0,0-.363.167,1.5,1.5,0,0,0-.309.264,1.576,1.576,0,0,0-.229.334A1.63,1.63,0,0,0,.04,12.6,1.648,1.648,0,0,0,0,13.018V1.54A1.643,1.643,0,0,1,.131.953,1.591,1.591,0,0,1,.448.473,1.492,1.492,0,0,1,.907.148,1.4,1.4,0,0,1,1.463.023,1.374,1.374,0,0,1,2.019.13a1.43,1.43,0,0,1,.459.311A1.526,1.526,0,0,1,2.8.912,1.612,1.612,0,0,1,2.926,1.5Z" transform="translate(0.256 11.383)" fill="#ff1b1c"/>
        <path id="Path_1553" data-name="Path 1553" d="M2.933,0V5.187a1.637,1.637,0,0,1-.131.588,1.578,1.578,0,0,1-.318.478,1.481,1.481,0,0,1-.46.323,1.4,1.4,0,0,1-.558.121,1.383,1.383,0,0,1-.557-.112,1.446,1.446,0,0,1-.46-.315A1.541,1.541,0,0,1,.132,5.8,1.619,1.619,0,0,1,0,5.213V.032A1.64,1.64,0,0,0,.041.448,1.6,1.6,0,0,0,.179.831a1.532,1.532,0,0,0,.229.33,1.46,1.46,0,0,0,.309.257,1.4,1.4,0,0,0,.364.16,1.382,1.382,0,0,0,.385.051,1.4,1.4,0,0,0,.385-.058A1.438,1.438,0,0,0,2.216,1.4a1.506,1.506,0,0,0,.31-.264A1.578,1.578,0,0,0,2.755.8,1.631,1.631,0,0,0,2.894.418,1.649,1.649,0,0,0,2.933,0Z" transform="translate(3.186 24.203)" fill="#ff1b1c"/>
        <path id="Path_1554" data-name="Path 1554" d="M2.509.465A1.436,1.436,0,0,0,2.159.2,1.387,1.387,0,0,0,1.33.039a1.423,1.423,0,0,0-.423.12A1.494,1.494,0,0,0,.535.4,1.574,1.574,0,0,0,.249.745a1.635,1.635,0,0,0-.183.412A1.654,1.654,0,0,0,0,1.614V22.452a1.631,1.631,0,0,1,.1-.565,1.6,1.6,0,0,1,.077-.176L.187,21.7l.008-.015L.2,21.665l.009-.016a1.559,1.559,0,0,1,.307-.388,1.479,1.479,0,0,1,.4-.26,1.412,1.412,0,0,1,.452-.117,1.383,1.383,0,0,1,.473.041,1.408,1.408,0,0,1,.435.2,1.478,1.478,0,0,1,.343.327,1.56,1.56,0,0,1,.229.425,1.623,1.623,0,0,1,.092.493s0,.009,0,.013,0,.009,0,.013,0,.009,0,.013,0,.009,0,.013v-7.35a1.6,1.6,0,0,1-.351.484,1.507,1.507,0,0,1-.478.3,1.429,1.429,0,0,1-.547.1,1.406,1.406,0,0,1-.558-.126,1.46,1.46,0,0,1-.47-.339,1.563,1.563,0,0,1-.3-.484,1.649,1.649,0,0,1-.116-.571,1.671,1.671,0,0,1,.1-.6A1.627,1.627,0,0,1,.3,13.632a1.6,1.6,0,0,1,.115-.192,1.569,1.569,0,0,1,.14-.173,1.531,1.531,0,0,1,.163-.15l-.064-.045Q.62,13.05.59,13.024t-.059-.052Q.5,12.945.475,12.916a1.436,1.436,0,0,1-.208-.282,1.5,1.5,0,0,1-.135-.323,1.543,1.543,0,0,1-.058-.349A1.566,1.566,0,0,1,.1,11.6q.007-.039.016-.078t.02-.077q.011-.038.024-.076T.184,11.3A1.51,1.51,0,0,1,.5,10.809a1.422,1.422,0,0,1,.45-.314,1.343,1.343,0,0,1,.526-.114,1.313,1.313,0,0,1,.543.112,1.363,1.363,0,0,1,.456.327,1.463,1.463,0,0,1,.29.472,1.546,1.546,0,0,1,.1.556,1.563,1.563,0,0,1-.114.577q-.026.064-.058.126t-.068.12q-.037.058-.078.113t-.088.1l-.024.026-.025.026-.026.025-.026.024a1.466,1.466,0,0,1,.135.091,1.488,1.488,0,0,1,.124.106,1.518,1.518,0,0,1,.113.12,1.546,1.546,0,0,1,.1.132l.03.046.029.048.027.049.025.05V1.557a1.64,1.64,0,0,0-.029-.3A1.6,1.6,0,0,0,2.827.964,1.557,1.557,0,0,0,2.693.7,1.5,1.5,0,0,0,2.509.465Z" transform="translate(6.117 0)" fill="#ff1b1c"/>
        <path id="Path_1555" data-name="Path 1555" d="M2.946,0V14.554a1.648,1.648,0,0,1-.039.419,1.629,1.629,0,0,1-.14.387,1.578,1.578,0,0,1-.231.335,1.508,1.508,0,0,1-.311.264,1.444,1.444,0,0,1-.366.167A1.4,1.4,0,0,1,.721,15.97a1.47,1.47,0,0,1-.311-.259,1.54,1.54,0,0,1-.23-.331A1.6,1.6,0,0,1,.041,15,1.641,1.641,0,0,1,0,14.579V.042A1.639,1.639,0,0,0,.041.459,1.593,1.593,0,0,0,.18.842a1.527,1.527,0,0,0,.23.33,1.458,1.458,0,0,0,.311.257,1.409,1.409,0,0,0,.365.159,1.391,1.391,0,0,0,.387.049,1.407,1.407,0,0,0,.387-.06,1.453,1.453,0,0,0,.366-.169,1.521,1.521,0,0,0,.311-.266A1.589,1.589,0,0,0,2.768.806a1.638,1.638,0,0,0,.14-.388A1.651,1.651,0,0,0,2.946,0Z" transform="translate(9.058 15.056)" fill="#ff1b1c"/>
        <path id="Path_1556" data-name="Path 1556" d="M2.952,1.566V11.739a1.612,1.612,0,0,0-.009-.175,1.6,1.6,0,0,0-.028-.172,1.579,1.579,0,0,0-.047-.167,1.555,1.555,0,0,0-.065-.16,1.529,1.529,0,0,0-.291-.427,1.452,1.452,0,0,0-.4-.292,1.395,1.395,0,0,0-.968-.1,1.451,1.451,0,0,0-.462.21,1.537,1.537,0,0,0-.363.349,1.613,1.613,0,0,0-.237.453A1.646,1.646,0,0,0,0,11.778V1.616a1.647,1.647,0,0,1,.083-.524A1.619,1.619,0,0,1,.319.636,1.545,1.545,0,0,1,.681.284,1.456,1.456,0,0,1,1.144.072a1.392,1.392,0,0,1,.97.1,1.443,1.443,0,0,1,.4.292A1.52,1.52,0,0,1,2.8.891a1.55,1.55,0,0,1,.065.161,1.573,1.573,0,0,1,.047.167,1.593,1.593,0,0,1,.028.172A1.617,1.617,0,0,1,2.952,1.566Z" transform="translate(12.003 6.216)" fill="#ff1b1c"/>
        <path id="Path_1557" data-name="Path 1557" d="M2.965,1.566V10.78a1.612,1.612,0,0,0-.142-.59,1.534,1.534,0,0,0-.332-.47,1.449,1.449,0,0,0-.475-.305,1.4,1.4,0,0,0-.57-.1,1.429,1.429,0,0,0-.564.142,1.517,1.517,0,0,0-.459.344,1.605,1.605,0,0,0-.308.5A1.645,1.645,0,0,0,0,10.9V1.618a1.649,1.649,0,0,1,.064-.46A1.631,1.631,0,0,1,.247.744,1.576,1.576,0,0,1,.536.4,1.5,1.5,0,0,1,.912.156a1.435,1.435,0,0,1,.427-.12A1.4,1.4,0,0,1,2.176.2a1.449,1.449,0,0,1,.353.271A1.5,1.5,0,0,1,2.715.7,1.547,1.547,0,0,1,2.852.97a1.593,1.593,0,0,1,.084.291A1.62,1.62,0,0,1,2.965,1.566Z" transform="translate(17.917 4.923)" fill="#ff1b1c"/>
        <path id="Path_1558" data-name="Path 1558" d="M2.961,0V11.067q0,.079-.015.157t-.03.154q-.019.076-.045.15t-.059.145a1.582,1.582,0,0,1-.294.432,1.506,1.506,0,0,1-.4.3,1.435,1.435,0,0,1-.469.147,1.4,1.4,0,0,1-.5-.025,1.422,1.422,0,0,1-.462-.2,1.49,1.49,0,0,1-.363-.341,1.572,1.572,0,0,1-.237-.448A1.631,1.631,0,0,1,0,11.017V.043A1.625,1.625,0,0,0,.084.563a1.561,1.561,0,0,0,.237.447,1.479,1.479,0,0,0,.363.34,1.413,1.413,0,0,0,.463.2,1.4,1.4,0,0,0,.5.022,1.44,1.44,0,0,0,.47-.15,1.514,1.514,0,0,0,.4-.3A1.591,1.591,0,0,0,2.81.684q.033-.071.059-.145t.045-.15q.019-.076.03-.154T2.96.079c0-.006,0-.012,0-.019s0-.013,0-.02,0-.014,0-.021S2.961.007,2.961,0Z" transform="translate(14.956 14.146)" fill="#ff1b1c"/>
        <path id="Path_1559" data-name="Path 1559" d="M2.974,0V10.743q0,.061,0,.122t-.014.121q-.009.06-.023.12t-.032.118a1.62,1.62,0,0,1-.215.444,1.558,1.558,0,0,1-.326.346,1.486,1.486,0,0,1-.41.226,1.429,1.429,0,0,1-.465.084,1.4,1.4,0,0,1-.463-.074,1.42,1.42,0,0,1-.216-.094,1.445,1.445,0,0,1-.2-.129l-.047-.038-.046-.039L.47,11.908l-.043-.043a1.534,1.534,0,0,1-.182-.235,1.581,1.581,0,0,1-.134-.265,1.621,1.621,0,0,1-.083-.288,1.645,1.645,0,0,1-.029-.3V.043a1.638,1.638,0,0,0,.028.3A1.61,1.61,0,0,0,.112.634,1.566,1.566,0,0,0,.245.9a1.523,1.523,0,0,0,.182.234l.042.044.044.041.046.039.047.037a1.458,1.458,0,0,0,.2.128,1.435,1.435,0,0,0,.216.093,1.422,1.422,0,0,0,.228.056,1.417,1.417,0,0,0,.235.018A1.432,1.432,0,0,0,1.95,1.5a1.494,1.494,0,0,0,.41-.227A1.567,1.567,0,0,0,2.686.928,1.628,1.628,0,0,0,2.9.483q.018-.059.032-.118t.023-.12q.009-.061.014-.122T2.974,0Z" transform="translate(20.883 14.214)" fill="#ff1b1c"/>
        <path id="Path_1560" data-name="Path 1560" d="M2.983,1.564V6.823a1.623,1.623,0,0,0-.029-.307,1.592,1.592,0,0,0-.085-.292,1.552,1.552,0,0,0-.138-.268,1.5,1.5,0,0,0-.188-.235,1.475,1.475,0,0,0-.227-.192,1.44,1.44,0,0,0-.256-.14,1.414,1.414,0,0,0-.569-.111l-.068,0-.067.006L1.29,5.3l-.067.012a1.446,1.446,0,0,0-.165.044A1.468,1.468,0,0,0,.9,5.415,1.5,1.5,0,0,0,.749,5.5a1.524,1.524,0,0,0-.142.1L.56,5.634l-.046.041-.045.043-.043.044A1.594,1.594,0,0,0,.245,6a1.631,1.631,0,0,0-.134.269A1.655,1.655,0,0,0,0,6.865V1.613a1.655,1.655,0,0,1,.111-.594A1.633,1.633,0,0,1,.245.749,1.594,1.594,0,0,1,.426.509L.469.464.514.422.56.381.607.342A1.5,1.5,0,0,1,.97.131a1.445,1.445,0,0,1,.4-.1,1.414,1.414,0,0,1,.794.15A1.457,1.457,0,0,1,2.5.424a1.518,1.518,0,0,1,.258.325,1.582,1.582,0,0,1,.164.387,1.631,1.631,0,0,1,.058.429Z" transform="translate(23.853 8.152)" fill="#ff1b1c"/>
        <path id="Path_1561" data-name="Path 1561" d="M2.99,1.568V7.093a1.629,1.629,0,0,0-.074-.484,1.579,1.579,0,0,0-.207-.426,1.513,1.513,0,0,0-.321-.339,1.453,1.453,0,0,0-.415-.224,1.423,1.423,0,0,0-.461-.078,1.438,1.438,0,0,0-.453.073,1.488,1.488,0,0,0-.412.213,1.554,1.554,0,0,0-.339.342q-.027.038-.052.077t-.048.08q-.023.041-.043.083T.127,6.5Q.1,6.572.072,6.649t-.04.157q-.016.08-.024.161T0,7.13V1.611q0-.082.008-.163t.024-.161q.016-.08.04-.157T.127.977Q.145.934.165.891T.208.808Q.231.767.256.728T.308.65A1.559,1.559,0,0,1,.647.308,1.491,1.491,0,0,1,1.059.094,1.44,1.44,0,0,1,1.512.02,1.421,1.421,0,0,1,1.973.1,1.448,1.448,0,0,1,2.388.32a1.509,1.509,0,0,1,.321.338,1.576,1.576,0,0,1,.207.426A1.628,1.628,0,0,1,2.99,1.568Z" transform="translate(29.824 16.245)" fill="#ff1b1c"/>
        <path id="Path_1562" data-name="Path 1562" d="M2.987,0V5.325q0,.052,0,.1t-.01.1q-.007.052-.017.1t-.024.1l0,.017,0,.017-.005.016L2.914,5.8a1.617,1.617,0,0,1-.176.39,1.567,1.567,0,0,1-.265.321,1.507,1.507,0,0,1-.336.236,1.45,1.45,0,0,1-.39.135,1.417,1.417,0,0,1-.8-.078A1.452,1.452,0,0,1,.6,6.6a1.505,1.505,0,0,1-.29-.3Q.282,6.266.257,6.228T.209,6.15Q.187,6.11.166,6.069T.128,5.986a1.606,1.606,0,0,1-.1-.308Q.016,5.6.008,5.517T0,5.355V.037A1.627,1.627,0,0,0,.119.645a1.557,1.557,0,0,0,.32.494,1.473,1.473,0,0,0,.474.331,1.42,1.42,0,0,0,.58.118h.1l.027,0,.029,0,.029,0,.029,0h.013l.026,0,.026,0L1.8,1.556l.025-.007.048-.012.047-.014.047-.016.046-.018.04-.016.039-.018.038-.019.038-.021.019-.009L2.2,1.4l.018-.011.018-.011.039-.025.039-.027L2.356,1.3l.037-.03.015-.011.014-.012.014-.012.014-.012.027-.025L2.5,1.168l.025-.026.025-.027.025-.026L2.6,1.062l.023-.028.022-.029q.038-.049.073-.1T2.785.8q.03-.055.056-.112T2.888.57L2.9.549,2.9.527,2.911.505,2.918.483q.011-.034.02-.069t.017-.07q.008-.035.014-.07T2.979.2c0-.006,0-.013,0-.019s0-.013,0-.019l0-.02c0-.006,0-.013,0-.019s0-.015,0-.025,0-.021,0-.032,0-.023,0-.035S2.987.01,2.987,0Z" transform="translate(26.836 20.141)" fill="#ff1b1c"/>
        <path id="Path_1563" data-name="Path 1563" d="M2.723,2.082a1.523,1.523,0,0,1-.32.492,1.449,1.449,0,0,1-.457.317,1.377,1.377,0,0,1-.534.116A1.346,1.346,0,0,1,.86,2.9L.784,2.86.711,2.82Q.675,2.8.64,2.775t-.068-.05L.525,2.688l-.046-.04L.434,2.605.392,2.56Q.363,2.529.336,2.5T.283,2.426Q.258,2.391.235,2.354T.191,2.279A1.5,1.5,0,0,1,.06,1.963,1.542,1.542,0,0,1,0,1.626,1.565,1.565,0,0,1,.115.949L.132.909.15.87.17.832.191.794Q.212.755.235.717T.283.643Q.308.607.335.572T.392.505L.434.459.479.415.525.372.572.332A1.424,1.424,0,0,1,.989.1,1.37,1.37,0,0,1,1.44.024,1.35,1.35,0,0,1,1.89.1,1.371,1.371,0,0,1,2.3.33a1.432,1.432,0,0,1,.315.359,1.505,1.505,0,0,1,.182.437,1.562,1.562,0,0,1-.072.956Z" transform="translate(29.563 8.055)" fill="#ff1b1c"/>
        <path id="Path_1564" data-name="Path 1564" d="M2.661,2.058a1.511,1.511,0,0,1-.313.488A1.419,1.419,0,0,1,1.9,2.86a1.335,1.335,0,0,1-.523.115,1.3,1.3,0,0,1-.54-.11L.764,2.831Q.728,2.812.693,2.791T.625,2.747Q.591,2.724.559,2.7L.512,2.661l-.045-.04L.423,2.58.381,2.536Q.353,2.5.327,2.471T.276,2.4Q.252,2.368.229,2.332T.186,2.258a1.486,1.486,0,0,1-.129-.313A1.536,1.536,0,0,1,0,1.613,1.559,1.559,0,0,1,.111.943L.128.9.145.864.165.826.186.789Q.206.75.228.713T.275.64Q.3.6.326.57T.381.5L.423.458.466.413.512.371.559.331A1.389,1.389,0,0,1,.966.1,1.326,1.326,0,0,1,1.407.025,1.305,1.305,0,0,1,1.846.1a1.334,1.334,0,0,1,.4.227,1.407,1.407,0,0,1,.308.354,1.5,1.5,0,0,1,.178.432,1.562,1.562,0,0,1-.07.945Z" transform="translate(0 4.958)" fill="#ff1b1c"/>
        <path id="Path_1549" data-name="Path 1549" d="M0,0V19.778H0V.057Q0,.049,0,.041c0-.005,0-.01,0-.015S0,.017,0,.013,0,0,0,0Z" transform="translate(17.915 15.597)" fill="#ff1b1c"/>
        <path id="Path_1550" data-name="Path 1550" d="M.193,0V1.485a1.5,1.5,0,0,1-.131-.317A1.542,1.542,0,0,1,0,.832,1.564,1.564,0,0,1,.117.155L.134.115.152.076.172.037Z" transform="translate(29.56 8.85)" fill="#ff1b1c"/>
        <path id="Path_1551" data-name="Path 1551" d="M2.845,0a1.551,1.551,0,0,1,.017.436,1.555,1.555,0,0,1-.1.424Q2.732.926,2.7.987t-.068.12q-.037.058-.078.113t-.088.1l-.024.026-.025.026L2.391,1.4l-.026.024a1.413,1.413,0,0,1-.328.217,1.354,1.354,0,0,1-.363.114,1.316,1.316,0,0,1-.747-.1L.875,1.638.824,1.612l-.05-.029L.725,1.552.66,1.507Q.629,1.484.6,1.459T.54,1.407Q.511,1.38.484,1.351a1.436,1.436,0,0,1-.208-.28A1.5,1.5,0,0,1,.14.75,1.544,1.544,0,0,1,.08.4,1.565,1.565,0,0,1,.1.044l-.1,0V6.251l2.938-.039V0Z" transform="translate(6.112 11.558)" fill="#ff1b1c"/>
        <path id="Path_1544" data-name="Path 1544" d="M.394,0V2.056Q.365,2.024.338,1.99T.285,1.922Q.26,1.886.237,1.85T.193,1.774a1.5,1.5,0,0,1-.131-.317A1.542,1.542,0,0,1,0,1.121,1.564,1.564,0,0,1,.117.445L.134.4.152.366.172.327.193.29Q.214.25.237.212T.285.138Q.31.1.337.067T.394,0Z" transform="translate(29.56 8.561)" fill="#ff1b1c"/>
      </g>
    </g>
    <path id="Signage" d="M5.383,0H1.65V-18.484H5.383Zm15.7-2.095A6.81,6.81,0,0,1,18.44-.336a9.672,9.672,0,0,1-3.434.59A6.3,6.3,0,0,1,10.055-1.72,8.537,8.537,0,0,1,8.239-7.465v-3.326a9.142,9.142,0,0,1,1.669-5.884,5.9,5.9,0,0,1,4.869-2.063,6.271,6.271,0,0,1,4.539,1.485,7.028,7.028,0,0,1,1.771,4.659H17.456A4.216,4.216,0,0,0,16.72-15a2.358,2.358,0,0,0-1.828-.641,2.391,2.391,0,0,0-2.2,1.1,7.039,7.039,0,0,0-.711,3.517v3.352a6.878,6.878,0,0,0,.755,3.675,2.748,2.748,0,0,0,2.482,1.149,3.242,3.242,0,0,0,1.79-.444l.33-.229v-3.39H14.727V-9.725h6.36ZM36.651,0H32.919L27.46-12.124V0H23.728V-18.484H27.46L32.932-6.348V-18.484h3.72Zm6.894,0H39.813V-18.484h3.732ZM58.284-15.374h-4.57V0H49.969V-15.374H45.475v-3.11h12.81ZM69.977-8H64.162v4.9h6.881V0H60.43V-18.484H71.018v3.11H64.162v4.367h5.814Zm8.811,1.244H76.934V0H73.2V-18.484h5.954a6.048,6.048,0,0,1,4.335,1.454,5.429,5.429,0,0,1,1.53,4.132q0,3.682-2.679,5.154L85.579-.178V0H81.567Zm-1.854-3.11h2.12a1.963,1.963,0,0,0,1.676-.743,3.227,3.227,0,0,0,.559-1.987q0-2.78-2.171-2.78H76.934ZM96.408-3.783H91.317L90.327,0H86.379l5.776-18.484H95.57L101.385,0H97.4ZM92.13-6.894h3.453l-1.727-6.589Zm21.43-8.48h-4.57V0h-3.745V-15.374H100.75v-3.11h12.81ZM125.252-8h-5.814v4.9h6.881V0H115.705V-18.484h10.588v3.11h-6.855v4.367h5.814Z" transform="translate(14684 5890)" fill="#fff"/>
  </g>
</svg>
